<?xml version="1.0" standalone="no"?>
<!DOCTYPE svg PUBLIC "-//W3C//DTD SVG 20010904//EN"
 "http://www.w3.org/TR/2001/REC-SVG-20010904/DTD/svg10.dtd">
<svg version="1.0" xmlns="http://www.w3.org/2000/svg"
 width="700.000000pt" height="700.000000pt" viewBox="0 0 700.000000 700.000000"
 preserveAspectRatio="xMidYMid meet">
<metadata>
Created by potrace 1.14, written by Peter Selinger 2001-2017
</metadata>
<g transform="translate(0.000000,700.000000) scale(0.100000,-0.100000)"
fill="#000000" stroke="none">
<path d="M1550 6989 c-349 -54 -589 -149 -841 -334 -76 -56 -237 -206 -302
-283 -207 -244 -356 -590 -395 -917 -9 -80 -9 -3820 0 -3910 4 -38 10 -81 13
-95 3 -14 10 -48 16 -77 18 -93 79 -265 134 -380 261 -545 781 -912 1390 -982
89 -11 3867 -9 3901 1 12 3 45 9 75 13 30 4 57 9 60 11 3 2 21 6 40 9 19 3 48
10 64 15 17 5 55 17 85 26 156 48 367 158 515 270 118 88 265 238 363 369 73
97 166 271 217 405 36 94 81 258 91 335 3 22 8 51 12 65 10 38 12 3847 2 3910
-5 30 -11 73 -14 95 -7 50 -10 64 -31 145 -9 36 -18 72 -20 80 -6 30 -73 197
-105 260 -160 319 -400 575 -705 751 -145 84 -361 164 -518 194 -46 8 -98 19
-117 22 -51 10 -3865 12 -3930 2z"/>
</g>
</svg>
