<?xml version="1.0" encoding="UTF-8" standalone="no"?>
<!DOCTYPE svg PUBLIC "-//W3C//DTD SVG 1.1//EN" "http://www.w3.org/Graphics/SVG/1.1/DTD/svg11.dtd">
<svg width="100%" height="100%" viewBox="0 0 350 150" version="1.1" xmlns="http://www.w3.org/2000/svg" xmlns:xlink="http://www.w3.org/1999/xlink" xml:space="preserve" xmlns:serif="http://www.serif.com/" style="fill-rule:evenodd;clip-rule:evenodd;stroke-linejoin:round;stroke-miterlimit:2;">
    <g transform="matrix(1.26546,0,0,1.26546,-5.1901,-10.5764)">
        <g id="bird" transform="matrix(0.20823,0,0,0.20823,57.8943,67.6249)">
            <g transform="matrix(1,0,0,1,-256.5,-205)">
                <clipPath id="_clip1">
                    <rect x="0" y="0" width="513" height="410"/>
                </clipPath>
                <g clip-path="url(#_clip1)">
                    <g transform="matrix(-1,0,0,1,512,-51.1921)">
                        <g>
                            <path d="M269.7,338.53C271.971,334.892 270.865,330.104 267.227,327.833C263.589,325.56 258.801,326.67 256.531,330.306L227.944,376.085L208.705,406.743C208.69,406.767 208.675,406.791 208.66,406.815L200.005,420.607L181.618,420.607C177.331,420.607 173.855,424.083 173.855,428.37C173.855,432.657 177.331,436.133 181.618,436.133L204.299,436.133C206.97,436.133 209.454,434.759 210.874,432.496L215.67,424.853L221.339,432.857C222.794,434.912 225.156,436.133 227.673,436.133L244.727,436.133C249.014,436.133 252.49,432.657 252.49,428.37C252.49,424.083 249.014,420.607 244.727,420.607L231.688,420.607L224.608,410.611L241.104,384.323L269.7,338.53Z" style="fill:rgb(128,128,128);fill-rule:nonzero;"/>
                            <path d="M316.937,311.276C313.241,309.108 308.484,310.348 306.313,314.045L275.165,367.149L226.464,445.283L208.093,445.283C203.806,445.283 200.33,448.759 200.33,453.046C200.33,457.333 203.806,460.809 208.093,460.809L230.773,460.809C233.453,460.809 235.944,459.427 237.362,457.152L242.128,449.505L247.815,457.533C249.27,459.588 251.632,460.809 254.149,460.809L271.203,460.809C275.49,460.809 278.966,457.333 278.966,453.046C278.966,448.759 275.49,445.283 271.203,445.283L258.164,445.283L251.035,435.217L288.396,375.273C288.434,375.214 288.469,375.154 288.504,375.094L319.706,321.899C321.874,318.202 320.636,313.445 316.937,311.276Z" style="fill:rgb(112,112,112);fill-rule:nonzero;"/>
                            <path d="M335.754,342.739L460.316,443.116C466.139,447.809 474.65,446.964 479.438,441.218C483.685,436.123 483.67,428.717 479.405,423.638L452.772,391.92L318.679,264.934L284.149,288.076L335.754,342.739Z" style="fill:rgb(233,94,94);fill-rule:nonzero;"/>
                            <path d="M345.571,335.426L501.176,417.429C503.443,418.624 506.167,418.558 508.373,417.254C513.014,414.512 513.246,407.881 508.808,404.821L375.419,312.869L314.143,275.148L286.427,303.181L345.571,335.426Z" style="fill:rgb(203,85,85);fill-rule:nonzero;"/>
                            <path d="M42.847,174.448L2.462,164.852C0.245,164.326 -0.726,161.716 0.606,159.868L2.443,157.317C12.878,142.832 28.284,132.7 45.719,128.857L95.147,119.093L99.761,184.005L42.847,174.448Z" style="fill:rgb(228,127,105);fill-rule:nonzero;"/>
                            <g>
                                <path d="M228.334,254.832L157.346,140.976L138.27,122.665C142.224,118.256 145.619,113.412 148.403,108.237C151.198,103.061 153.382,97.565 154.893,91.841L159.023,76.274C159.261,75.373 158.702,74.462 157.802,74.266L143.217,71.098L151.695,53.523C152.274,52.322 151.239,50.966 149.925,51.225L141.613,52.819C111.317,58.667 84.364,75.787 66.198,100.732L55.946,114.808L55.951,114.809L69.211,178.879L49.368,207.675L49.366,207.675L57.297,248.094C73.227,329.243 146.913,385.965 229.428,380.603C249.539,379.299 269.236,375.065 287.919,368.11C306.612,361.164 324.291,351.507 340.366,339.356L389.428,302.28L228.334,254.832Z" style="fill:rgb(255,116,116);fill-rule:nonzero;"/>
                                <path d="M96.999,248.093L85.491,199.837C78.749,171.565 82.894,141.79 97.101,116.434L105.9,100.731C116.563,86.09 130.254,74.149 145.87,65.596L151.695,53.522C152.274,52.321 151.239,50.965 149.925,51.224L141.613,52.818C111.317,58.666 84.364,75.786 66.198,100.731L55.938,114.812L72.163,155.868L49.368,207.674L49.366,207.675L57.297,248.093C73.227,329.242 146.913,385.964 229.428,380.602C232.538,380.4 235.654,380.127 238.741,379.785C169.128,371.422 110.939,319.108 96.999,248.093Z" style="fill:rgb(232,103,103);fill-rule:nonzero;"/>
                                <g>
                                    <path d="M108.873,151.32C108.873,157.737 107.196,163.906 104.132,169.309C101.079,174.702 96.639,179.329 91.142,182.62L49.367,207.689L42.847,174.448L45.434,170.551C52.483,159.911 53.58,146.403 48.363,134.769L45.714,128.869L55.94,114.824L72.366,114.824C92.529,114.824 108.873,131.167 108.873,151.32Z" style="fill:rgb(94,94,94);fill-rule:nonzero;"/>
                                </g>
                                <path d="M94.161,122.025C88.077,117.488 80.541,114.808 72.367,114.808L55.941,114.808L45.715,128.854L48.364,134.754C53.581,146.388 52.484,159.895 45.435,170.536L42.847,174.448L49.368,207.674L83.227,187.356C80.436,165.029 84.21,142.306 94.161,122.025Z" style="fill:rgb(70,69,70);fill-rule:nonzero;"/>
                                <g>
                                    <path d="M76.973,155.868C72.686,155.868 69.211,152.392 69.211,148.105L69.211,143.164C69.211,138.876 72.686,135.401 76.973,135.401C81.261,135.401 84.736,138.876 84.736,143.164L84.736,148.105C84.736,152.392 81.261,155.868 76.973,155.868Z" style="fill-rule:nonzero;"/>
                                </g>
                                <g id="XMLID_438_">
                                    <g>
                                        <g id="XMLID_440_">
                                            <g>
                                                <path d="M210.887,194.307L194.412,174.448C181.743,163.673 169.374,152.515 157.346,140.975L138.187,165.298C126.677,179.914 122.547,199.01 126.988,217.072C141.002,274.073 192.124,313.499 249.912,313.499C250.968,313.499 252.013,313.488 253.069,313.447L263.115,277.642L210.887,194.307Z" style="fill:rgb(190,82,82);fill-rule:nonzero;"/>
                                                <path d="M323.303,268.589L303.663,253.061L303.673,253.051C283.261,240.755 263.399,227.578 244.136,213.563L232.194,209.051L268.643,293.043L298.228,309.907L341.266,306.305L344.847,295.969L323.303,268.589Z" style="fill:rgb(165,73,73);fill-rule:nonzero;"/>
                                                <path d="M244.136,213.574L298.228,309.907L260.552,313.054C258.047,313.261 255.553,313.395 253.069,313.447L194.412,174.448C210.497,188.122 227.078,201.174 244.136,213.563L244.136,213.574Z" style="fill:rgb(179,79,79);fill-rule:nonzero;"/>
                                            </g>
                                        </g>
                                    </g>
                                </g>
                            </g>
                            <path d="M390.09,298.511C391.943,299.36 391.457,302.113 389.428,302.279L341.266,306.305L303.663,253.061L303.673,253.051C330.295,269.126 357.838,283.699 386.167,296.71L390.09,298.511Z" style="fill:rgb(147,67,67);fill-rule:nonzero;"/>
                        </g>
                    </g>
                </g>
            </g>
            <g>
            </g>
        </g>
    </g>
    <g transform="matrix(1,0,0,1,23.9922,7.63057)">
        <g transform="matrix(1,0,0,1,170.905,16.4719)">
            <g transform="matrix(48,0,0,48,-53.4595,74.8048)">
                <path d="M0.625,-0.24C0.623,-0.19 0.609,-0.147 0.585,-0.109C0.562,-0.072 0.528,-0.042 0.486,-0.021C0.443,-0.001 0.393,0.01 0.335,0.01C0.274,0.01 0.221,-0.004 0.177,-0.032C0.132,-0.06 0.098,-0.1 0.074,-0.151C0.05,-0.203 0.039,-0.264 0.039,-0.335L0.039,-0.376C0.039,-0.446 0.051,-0.507 0.075,-0.559C0.1,-0.611 0.134,-0.651 0.179,-0.679C0.224,-0.707 0.276,-0.721 0.335,-0.721C0.394,-0.721 0.445,-0.71 0.487,-0.689C0.529,-0.667 0.561,-0.637 0.585,-0.599C0.608,-0.561 0.622,-0.517 0.626,-0.467L0.468,-0.467C0.466,-0.509 0.454,-0.54 0.434,-0.561C0.414,-0.581 0.381,-0.591 0.335,-0.591C0.289,-0.591 0.255,-0.574 0.232,-0.54C0.21,-0.506 0.199,-0.451 0.199,-0.377L0.199,-0.335C0.199,-0.284 0.204,-0.243 0.213,-0.212C0.222,-0.181 0.236,-0.158 0.256,-0.143C0.276,-0.128 0.302,-0.12 0.335,-0.12C0.378,-0.12 0.41,-0.13 0.431,-0.149C0.453,-0.169 0.465,-0.199 0.467,-0.24L0.625,-0.24Z" style="fill:white;fill-rule:nonzero;"/>
            </g>
            <g transform="matrix(48,0,0,48,-22.0063,74.8048)">
                <path d="M0.484,-0.132C0.484,-0.101 0.486,-0.076 0.489,-0.057C0.493,-0.039 0.498,-0.022 0.506,-0.008L0.506,0L0.353,0C0.347,-0.013 0.342,-0.029 0.338,-0.047C0.306,-0.009 0.263,0.01 0.208,0.01C0.175,0.01 0.145,0.003 0.117,-0.01C0.09,-0.024 0.068,-0.043 0.052,-0.067C0.036,-0.091 0.028,-0.119 0.028,-0.149C0.028,-0.205 0.049,-0.247 0.09,-0.278C0.131,-0.308 0.193,-0.323 0.274,-0.323L0.331,-0.323L0.331,-0.352C0.331,-0.375 0.325,-0.394 0.314,-0.407C0.302,-0.42 0.284,-0.427 0.26,-0.427C0.239,-0.427 0.222,-0.422 0.21,-0.411C0.198,-0.401 0.192,-0.386 0.192,-0.367L0.041,-0.367C0.041,-0.399 0.05,-0.428 0.069,-0.454C0.087,-0.48 0.114,-0.501 0.149,-0.516C0.183,-0.531 0.223,-0.538 0.269,-0.538C0.311,-0.538 0.348,-0.531 0.38,-0.517C0.413,-0.503 0.438,-0.482 0.456,-0.454C0.475,-0.426 0.484,-0.391 0.484,-0.351L0.484,-0.132ZM0.242,-0.104C0.263,-0.104 0.281,-0.109 0.297,-0.118C0.313,-0.127 0.324,-0.138 0.331,-0.15L0.331,-0.237L0.276,-0.237C0.244,-0.237 0.22,-0.229 0.204,-0.215C0.188,-0.2 0.181,-0.181 0.181,-0.158C0.181,-0.142 0.186,-0.129 0.198,-0.119C0.209,-0.109 0.224,-0.104 0.242,-0.104Z" style="fill:white;fill-rule:nonzero;"/>
            </g>
            <g transform="matrix(48,0,0,48,3.61084,74.8048)">
                <path d="M0.316,-0.538C0.334,-0.538 0.349,-0.536 0.36,-0.532L0.358,-0.385C0.333,-0.387 0.316,-0.389 0.306,-0.389C0.279,-0.389 0.257,-0.384 0.24,-0.376C0.224,-0.368 0.211,-0.355 0.204,-0.338L0.204,0L0.051,0L0.051,-0.528L0.194,-0.528L0.199,-0.463C0.213,-0.487 0.229,-0.506 0.249,-0.519C0.268,-0.532 0.291,-0.538 0.316,-0.538Z" style="fill:white;fill-rule:nonzero;"/>
            </g>
            <g transform="matrix(48,0,0,48,21.4468,74.8048)">
                <path d="M0.512,-0.75L0.512,0L0.375,0L0.367,-0.057C0.333,-0.013 0.289,0.01 0.235,0.01C0.192,0.01 0.155,-0.002 0.124,-0.025C0.093,-0.048 0.07,-0.079 0.053,-0.12C0.037,-0.16 0.029,-0.206 0.029,-0.258L0.029,-0.268C0.029,-0.322 0.037,-0.369 0.053,-0.41C0.07,-0.45 0.093,-0.482 0.124,-0.504C0.155,-0.527 0.192,-0.538 0.236,-0.538C0.285,-0.538 0.326,-0.519 0.359,-0.481L0.359,-0.75L0.512,-0.75ZM0.273,-0.113C0.294,-0.113 0.311,-0.118 0.325,-0.126C0.34,-0.135 0.351,-0.147 0.359,-0.164L0.359,-0.365C0.343,-0.398 0.315,-0.415 0.274,-0.415C0.242,-0.415 0.219,-0.402 0.204,-0.375C0.189,-0.349 0.182,-0.313 0.182,-0.268L0.182,-0.258C0.182,-0.214 0.189,-0.178 0.203,-0.152C0.217,-0.126 0.241,-0.113 0.273,-0.113Z" style="fill:white;fill-rule:nonzero;"/>
            </g>
            <g transform="matrix(48,0,0,48,48.4702,74.8048)">
                <path d="M0.134,-0.743C0.16,-0.743 0.18,-0.735 0.196,-0.721C0.211,-0.706 0.219,-0.688 0.219,-0.665C0.219,-0.642 0.211,-0.623 0.196,-0.609C0.18,-0.594 0.16,-0.587 0.134,-0.587C0.109,-0.587 0.088,-0.594 0.073,-0.609C0.058,-0.623 0.05,-0.642 0.05,-0.665C0.05,-0.688 0.058,-0.706 0.073,-0.721C0.088,-0.735 0.109,-0.743 0.134,-0.743ZM0.059,0L0.059,-0.528L0.211,-0.528L0.211,0L0.059,0Z" style="fill:white;fill-rule:nonzero;"/>
            </g>
            <g transform="matrix(48,0,0,48,61.4312,74.8048)">
                <path d="M0.347,-0.538C0.399,-0.538 0.44,-0.522 0.469,-0.49C0.499,-0.458 0.513,-0.406 0.513,-0.333L0.513,0L0.36,0L0.36,-0.334C0.36,-0.365 0.354,-0.386 0.341,-0.398C0.328,-0.409 0.308,-0.415 0.281,-0.415C0.245,-0.415 0.218,-0.4 0.2,-0.371L0.2,0L0.048,0L0.048,-0.528L0.19,-0.528L0.196,-0.467C0.214,-0.49 0.236,-0.508 0.261,-0.52C0.287,-0.532 0.315,-0.538 0.347,-0.538Z" style="fill:white;fill-rule:nonzero;"/>
            </g>
            <g transform="matrix(48,0,0,48,88.4077,74.8048)">
                <path d="M0.484,-0.132C0.484,-0.101 0.486,-0.076 0.489,-0.057C0.493,-0.039 0.498,-0.022 0.506,-0.008L0.506,0L0.353,0C0.347,-0.013 0.342,-0.029 0.338,-0.047C0.306,-0.009 0.263,0.01 0.208,0.01C0.175,0.01 0.145,0.003 0.117,-0.01C0.09,-0.024 0.068,-0.043 0.052,-0.067C0.036,-0.091 0.028,-0.119 0.028,-0.149C0.028,-0.205 0.049,-0.247 0.09,-0.278C0.131,-0.308 0.193,-0.323 0.274,-0.323L0.331,-0.323L0.331,-0.352C0.331,-0.375 0.325,-0.394 0.314,-0.407C0.302,-0.42 0.284,-0.427 0.26,-0.427C0.239,-0.427 0.222,-0.422 0.21,-0.411C0.198,-0.401 0.192,-0.386 0.192,-0.367L0.041,-0.367C0.041,-0.399 0.05,-0.428 0.069,-0.454C0.087,-0.48 0.114,-0.501 0.149,-0.516C0.183,-0.531 0.223,-0.538 0.269,-0.538C0.311,-0.538 0.348,-0.531 0.38,-0.517C0.413,-0.503 0.438,-0.482 0.456,-0.454C0.475,-0.426 0.484,-0.391 0.484,-0.351L0.484,-0.132ZM0.242,-0.104C0.263,-0.104 0.281,-0.109 0.297,-0.118C0.313,-0.127 0.324,-0.138 0.331,-0.15L0.331,-0.237L0.276,-0.237C0.244,-0.237 0.22,-0.229 0.204,-0.215C0.188,-0.2 0.181,-0.181 0.181,-0.158C0.181,-0.142 0.186,-0.129 0.198,-0.119C0.209,-0.109 0.224,-0.104 0.242,-0.104Z" style="fill:white;fill-rule:nonzero;"/>
            </g>
            <g transform="matrix(48,0,0,48,114.025,74.8048)">
                <rect x="0.059" y="-0.75" width="0.153" height="0.75" style="fill:white;fill-rule:nonzero;"/>
            </g>
        </g>
        <g transform="matrix(1,0,0,1,458.667,-0.133389)">
            <g transform="matrix(24,0,0,24,-340.488,113.836)">
                <path d="M0.625,-0.24C0.623,-0.19 0.609,-0.147 0.585,-0.109C0.562,-0.072 0.528,-0.042 0.486,-0.021C0.443,-0.001 0.393,0.01 0.335,0.01C0.274,0.01 0.221,-0.004 0.177,-0.032C0.132,-0.06 0.098,-0.1 0.074,-0.151C0.05,-0.203 0.039,-0.264 0.039,-0.335L0.039,-0.376C0.039,-0.446 0.051,-0.507 0.075,-0.559C0.1,-0.611 0.134,-0.651 0.179,-0.679C0.224,-0.707 0.276,-0.721 0.335,-0.721C0.394,-0.721 0.445,-0.71 0.487,-0.689C0.529,-0.667 0.561,-0.637 0.585,-0.599C0.608,-0.561 0.622,-0.517 0.626,-0.467L0.468,-0.467C0.466,-0.509 0.454,-0.54 0.434,-0.561C0.414,-0.581 0.381,-0.591 0.335,-0.591C0.289,-0.591 0.255,-0.574 0.232,-0.54C0.21,-0.506 0.199,-0.451 0.199,-0.377L0.199,-0.335C0.199,-0.284 0.204,-0.243 0.213,-0.212C0.222,-0.181 0.236,-0.158 0.256,-0.143C0.276,-0.128 0.302,-0.12 0.335,-0.12C0.378,-0.12 0.41,-0.13 0.431,-0.149C0.453,-0.169 0.465,-0.199 0.467,-0.24L0.625,-0.24Z" style="fill:white;fill-rule:nonzero;"/>
            </g>
            <g transform="matrix(24,0,0,24,-324.761,113.836)">
                <path d="M0.029,-0.269C0.029,-0.321 0.039,-0.367 0.059,-0.408C0.079,-0.448 0.107,-0.48 0.145,-0.503C0.183,-0.527 0.229,-0.538 0.281,-0.538C0.334,-0.538 0.38,-0.527 0.418,-0.503C0.456,-0.48 0.485,-0.448 0.505,-0.408C0.524,-0.367 0.534,-0.321 0.534,-0.269L0.534,-0.259C0.534,-0.207 0.524,-0.161 0.505,-0.12C0.485,-0.079 0.456,-0.048 0.418,-0.025C0.38,-0.002 0.335,0.01 0.282,0.01C0.229,0.01 0.184,-0.002 0.146,-0.025C0.107,-0.048 0.079,-0.079 0.059,-0.12C0.039,-0.16 0.029,-0.207 0.029,-0.259L0.029,-0.269ZM0.182,-0.259C0.182,-0.214 0.19,-0.179 0.205,-0.153C0.221,-0.126 0.247,-0.113 0.282,-0.113C0.317,-0.113 0.342,-0.126 0.358,-0.153C0.374,-0.179 0.382,-0.215 0.382,-0.259L0.382,-0.269C0.382,-0.313 0.374,-0.348 0.358,-0.375C0.342,-0.402 0.317,-0.415 0.281,-0.415C0.246,-0.415 0.221,-0.402 0.205,-0.375C0.19,-0.348 0.182,-0.313 0.182,-0.269L0.182,-0.259Z" style="fill:white;fill-rule:nonzero;"/>
            </g>
            <g transform="matrix(24,0,0,24,-311.226,113.836)">
                <path d="M0.645,-0.538C0.698,-0.538 0.74,-0.522 0.769,-0.49C0.798,-0.458 0.813,-0.406 0.813,-0.334L0.813,0L0.66,0L0.66,-0.334C0.66,-0.355 0.657,-0.372 0.651,-0.384C0.646,-0.396 0.638,-0.404 0.628,-0.408C0.617,-0.413 0.604,-0.415 0.588,-0.415C0.569,-0.415 0.553,-0.41 0.54,-0.401C0.526,-0.392 0.516,-0.38 0.508,-0.363L0.508,0L0.355,0L0.355,-0.333C0.355,-0.355 0.353,-0.372 0.347,-0.384C0.342,-0.396 0.334,-0.404 0.323,-0.408C0.313,-0.413 0.299,-0.415 0.283,-0.415C0.265,-0.415 0.25,-0.411 0.236,-0.403C0.223,-0.395 0.212,-0.384 0.204,-0.369L0.204,0L0.051,0L0.051,-0.528L0.194,-0.528L0.199,-0.468C0.217,-0.491 0.238,-0.508 0.264,-0.52C0.289,-0.532 0.318,-0.538 0.35,-0.538C0.383,-0.538 0.411,-0.531 0.434,-0.518C0.458,-0.505 0.476,-0.485 0.488,-0.458C0.506,-0.484 0.527,-0.503 0.554,-0.517C0.58,-0.531 0.611,-0.538 0.645,-0.538Z" style="fill:white;fill-rule:nonzero;"/>
            </g>
            <g transform="matrix(24,0,0,24,-290.496,113.836)">
                <path d="M0.327,-0.538C0.371,-0.538 0.409,-0.527 0.439,-0.505C0.47,-0.483 0.494,-0.452 0.51,-0.412C0.525,-0.372 0.533,-0.325 0.533,-0.271L0.533,-0.26C0.533,-0.208 0.525,-0.162 0.509,-0.121C0.493,-0.08 0.47,-0.048 0.439,-0.025C0.408,-0.002 0.371,0.01 0.328,0.01C0.277,0.01 0.236,-0.009 0.204,-0.045L0.204,0.203L0.051,0.203L0.051,-0.528L0.193,-0.528L0.198,-0.478C0.231,-0.518 0.274,-0.538 0.327,-0.538ZM0.381,-0.271C0.381,-0.315 0.373,-0.35 0.359,-0.376C0.344,-0.402 0.32,-0.415 0.289,-0.415C0.267,-0.415 0.249,-0.411 0.236,-0.404C0.222,-0.396 0.211,-0.384 0.204,-0.369L0.204,-0.162C0.219,-0.129 0.248,-0.113 0.29,-0.113C0.322,-0.113 0.345,-0.127 0.359,-0.154C0.374,-0.18 0.381,-0.216 0.381,-0.26L0.381,-0.271Z" style="fill:white;fill-rule:nonzero;"/>
            </g>
            <g transform="matrix(24,0,0,24,-276.984,113.836)">
                <path d="M0.029,-0.269C0.029,-0.321 0.039,-0.367 0.059,-0.408C0.079,-0.448 0.107,-0.48 0.145,-0.503C0.183,-0.527 0.229,-0.538 0.281,-0.538C0.334,-0.538 0.38,-0.527 0.418,-0.503C0.456,-0.48 0.485,-0.448 0.505,-0.408C0.524,-0.367 0.534,-0.321 0.534,-0.269L0.534,-0.259C0.534,-0.207 0.524,-0.161 0.505,-0.12C0.485,-0.079 0.456,-0.048 0.418,-0.025C0.38,-0.002 0.335,0.01 0.282,0.01C0.229,0.01 0.184,-0.002 0.146,-0.025C0.107,-0.048 0.079,-0.079 0.059,-0.12C0.039,-0.16 0.029,-0.207 0.029,-0.259L0.029,-0.269ZM0.182,-0.259C0.182,-0.214 0.19,-0.179 0.205,-0.153C0.221,-0.126 0.247,-0.113 0.282,-0.113C0.317,-0.113 0.342,-0.126 0.358,-0.153C0.374,-0.179 0.382,-0.215 0.382,-0.259L0.382,-0.269C0.382,-0.313 0.374,-0.348 0.358,-0.375C0.342,-0.402 0.317,-0.415 0.281,-0.415C0.246,-0.415 0.221,-0.402 0.205,-0.375C0.19,-0.348 0.182,-0.313 0.182,-0.269L0.182,-0.259Z" style="fill:white;fill-rule:nonzero;"/>
            </g>
            <g transform="matrix(24,0,0,24,-263.449,113.836)">
                <path d="M0.347,-0.538C0.399,-0.538 0.44,-0.522 0.469,-0.49C0.499,-0.458 0.513,-0.406 0.513,-0.333L0.513,0L0.36,0L0.36,-0.334C0.36,-0.365 0.354,-0.386 0.341,-0.398C0.328,-0.409 0.308,-0.415 0.281,-0.415C0.245,-0.415 0.218,-0.4 0.2,-0.371L0.2,0L0.048,0L0.048,-0.528L0.19,-0.528L0.196,-0.467C0.214,-0.49 0.236,-0.508 0.261,-0.52C0.287,-0.532 0.315,-0.538 0.347,-0.538Z" style="fill:white;fill-rule:nonzero;"/>
            </g>
            <g transform="matrix(24,0,0,24,-249.961,113.836)">
                <path d="M0.52,-0.214L0.188,-0.214C0.194,-0.183 0.207,-0.158 0.229,-0.14C0.25,-0.122 0.277,-0.113 0.31,-0.113C0.335,-0.113 0.358,-0.118 0.38,-0.127C0.401,-0.136 0.42,-0.15 0.435,-0.169L0.507,-0.084C0.488,-0.058 0.461,-0.035 0.425,-0.017C0.389,0.001 0.348,0.01 0.3,0.01C0.245,0.01 0.198,-0.002 0.158,-0.025C0.117,-0.048 0.086,-0.079 0.065,-0.118C0.043,-0.157 0.033,-0.2 0.033,-0.247L0.033,-0.265C0.033,-0.318 0.043,-0.364 0.063,-0.406C0.082,-0.447 0.111,-0.479 0.149,-0.503C0.186,-0.526 0.231,-0.538 0.283,-0.538C0.333,-0.538 0.376,-0.528 0.411,-0.507C0.447,-0.486 0.474,-0.456 0.492,-0.417C0.51,-0.378 0.52,-0.332 0.52,-0.279L0.52,-0.214ZM0.37,-0.328C0.37,-0.355 0.363,-0.376 0.348,-0.392C0.333,-0.407 0.311,-0.415 0.282,-0.415C0.23,-0.415 0.199,-0.382 0.188,-0.315L0.37,-0.315L0.37,-0.328Z" style="fill:white;fill-rule:nonzero;"/>
            </g>
            <g transform="matrix(24,0,0,24,-236.941,113.836)">
                <path d="M0.347,-0.538C0.399,-0.538 0.44,-0.522 0.469,-0.49C0.499,-0.458 0.513,-0.406 0.513,-0.333L0.513,0L0.36,0L0.36,-0.334C0.36,-0.365 0.354,-0.386 0.341,-0.398C0.328,-0.409 0.308,-0.415 0.281,-0.415C0.245,-0.415 0.218,-0.4 0.2,-0.371L0.2,0L0.048,0L0.048,-0.528L0.19,-0.528L0.196,-0.467C0.214,-0.49 0.236,-0.508 0.261,-0.52C0.287,-0.532 0.315,-0.538 0.347,-0.538Z" style="fill:white;fill-rule:nonzero;"/>
            </g>
            <g transform="matrix(24,0,0,24,-223.453,113.836)">
                <path d="M0.284,-0.115C0.299,-0.115 0.313,-0.116 0.325,-0.119L0.325,-0.004C0.299,0.005 0.269,0.01 0.236,0.01C0.185,0.01 0.146,-0.003 0.119,-0.029C0.092,-0.055 0.078,-0.095 0.078,-0.15L0.078,-0.417L0.006,-0.417L0.006,-0.528L0.078,-0.528L0.078,-0.659L0.23,-0.659L0.23,-0.528L0.319,-0.528L0.319,-0.417L0.23,-0.417L0.23,-0.169C0.23,-0.148 0.235,-0.134 0.243,-0.126C0.251,-0.119 0.265,-0.115 0.284,-0.115Z" style="fill:white;fill-rule:nonzero;"/>
            </g>
            <g transform="matrix(24,0,0,24,-209.296,113.836)">
                <path d="M0.522,-0.127L0.522,0L0.059,0L0.059,-0.711L0.218,-0.711L0.218,-0.127L0.522,-0.127Z" style="fill:white;fill-rule:nonzero;"/>
            </g>
            <g transform="matrix(24,0,0,24,-196.289,113.836)">
                <path d="M0.134,-0.743C0.16,-0.743 0.18,-0.735 0.196,-0.721C0.211,-0.706 0.219,-0.688 0.219,-0.665C0.219,-0.642 0.211,-0.623 0.196,-0.609C0.18,-0.594 0.16,-0.587 0.134,-0.587C0.109,-0.587 0.088,-0.594 0.073,-0.609C0.058,-0.623 0.05,-0.642 0.05,-0.665C0.05,-0.688 0.058,-0.706 0.073,-0.721C0.088,-0.735 0.109,-0.743 0.134,-0.743ZM0.059,0L0.059,-0.528L0.211,-0.528L0.211,0L0.059,0Z" style="fill:white;fill-rule:nonzero;"/>
            </g>
            <g transform="matrix(24,0,0,24,-189.808,113.836)">
                <path d="M0.327,-0.538C0.373,-0.538 0.411,-0.527 0.442,-0.504C0.472,-0.482 0.495,-0.45 0.51,-0.41C0.526,-0.37 0.533,-0.323 0.533,-0.27L0.533,-0.26C0.533,-0.206 0.526,-0.159 0.51,-0.118C0.495,-0.078 0.472,-0.046 0.442,-0.024C0.411,-0.001 0.373,0.01 0.328,0.01C0.272,0.01 0.228,-0.012 0.195,-0.056L0.188,0L0.051,0L0.051,-0.75L0.204,-0.75L0.204,-0.483C0.236,-0.52 0.277,-0.538 0.327,-0.538ZM0.381,-0.27C0.381,-0.315 0.375,-0.35 0.361,-0.376C0.348,-0.402 0.324,-0.415 0.289,-0.415C0.247,-0.415 0.219,-0.399 0.204,-0.366L0.204,-0.162C0.219,-0.129 0.248,-0.113 0.29,-0.113C0.325,-0.113 0.349,-0.125 0.362,-0.15C0.375,-0.175 0.381,-0.212 0.381,-0.26L0.381,-0.27Z" style="fill:white;fill-rule:nonzero;"/>
            </g>
            <g transform="matrix(24,0,0,24,-176.296,113.836)">
                <path d="M0.316,-0.538C0.334,-0.538 0.349,-0.536 0.36,-0.532L0.358,-0.385C0.333,-0.387 0.316,-0.389 0.306,-0.389C0.279,-0.389 0.257,-0.384 0.24,-0.376C0.224,-0.368 0.211,-0.355 0.204,-0.338L0.204,0L0.051,0L0.051,-0.528L0.194,-0.528L0.199,-0.463C0.213,-0.487 0.229,-0.506 0.249,-0.519C0.268,-0.532 0.291,-0.538 0.316,-0.538Z" style="fill:white;fill-rule:nonzero;"/>
            </g>
            <g transform="matrix(24,0,0,24,-167.414,113.836)">
                <path d="M0.484,-0.132C0.484,-0.101 0.486,-0.076 0.489,-0.057C0.493,-0.039 0.498,-0.022 0.506,-0.008L0.506,0L0.353,0C0.347,-0.013 0.342,-0.029 0.338,-0.047C0.306,-0.009 0.263,0.01 0.208,0.01C0.175,0.01 0.145,0.003 0.117,-0.01C0.09,-0.024 0.068,-0.043 0.052,-0.067C0.036,-0.091 0.028,-0.119 0.028,-0.149C0.028,-0.205 0.049,-0.247 0.09,-0.278C0.131,-0.308 0.193,-0.323 0.274,-0.323L0.331,-0.323L0.331,-0.352C0.331,-0.375 0.325,-0.394 0.314,-0.407C0.302,-0.42 0.284,-0.427 0.26,-0.427C0.239,-0.427 0.222,-0.422 0.21,-0.411C0.198,-0.401 0.192,-0.386 0.192,-0.367L0.041,-0.367C0.041,-0.399 0.05,-0.428 0.069,-0.454C0.087,-0.48 0.114,-0.501 0.149,-0.516C0.183,-0.531 0.223,-0.538 0.269,-0.538C0.311,-0.538 0.348,-0.531 0.38,-0.517C0.413,-0.503 0.438,-0.482 0.456,-0.454C0.475,-0.426 0.484,-0.391 0.484,-0.351L0.484,-0.132ZM0.242,-0.104C0.263,-0.104 0.281,-0.109 0.297,-0.118C0.313,-0.127 0.324,-0.138 0.331,-0.15L0.331,-0.237L0.276,-0.237C0.244,-0.237 0.22,-0.229 0.204,-0.215C0.188,-0.2 0.181,-0.181 0.181,-0.158C0.181,-0.142 0.186,-0.129 0.198,-0.119C0.209,-0.109 0.224,-0.104 0.242,-0.104Z" style="fill:white;fill-rule:nonzero;"/>
            </g>
            <g transform="matrix(24,0,0,24,-154.605,113.836)">
                <path d="M0.316,-0.538C0.334,-0.538 0.349,-0.536 0.36,-0.532L0.358,-0.385C0.333,-0.387 0.316,-0.389 0.306,-0.389C0.279,-0.389 0.257,-0.384 0.24,-0.376C0.224,-0.368 0.211,-0.355 0.204,-0.338L0.204,0L0.051,0L0.051,-0.528L0.194,-0.528L0.199,-0.463C0.213,-0.487 0.229,-0.506 0.249,-0.519C0.268,-0.532 0.291,-0.538 0.316,-0.538Z" style="fill:white;fill-rule:nonzero;"/>
            </g>
            <g transform="matrix(24,0,0,24,-145.687,113.836)">
                <path d="M0.511,-0.528L0.299,0.079C0.291,0.102 0.281,0.123 0.269,0.143C0.257,0.162 0.239,0.178 0.216,0.192C0.192,0.206 0.163,0.213 0.127,0.213C0.114,0.213 0.103,0.213 0.095,0.211C0.087,0.21 0.076,0.208 0.062,0.204L0.062,0.089L0.083,0.09C0.11,0.09 0.129,0.086 0.142,0.078C0.154,0.07 0.164,0.058 0.17,0.041L0.185,0.003L0,-0.528L0.163,-0.528L0.255,-0.215L0.348,-0.528L0.511,-0.528Z" style="fill:white;fill-rule:nonzero;"/>
            </g>
        </g>
    </g>
</svg>
